<svg xmlns="http://www.w3.org/2000/svg" xmlns:xlink="http://www.w3.org/1999/xlink" width="500" zoomAndPan="magnify" viewBox="0 0 375 374.999991" height="500" preserveAspectRatio="xMidYMid meet" version="1.0"><defs><clipPath id="a6b7f56df5"><path d="M 353 36 L 365.289062 36 L 365.289062 45 L 353 45 Z M 353 36 " clip-rule="nonzero"/></clipPath><clipPath id="558b6c4b81"><path d="M 32 14.007812 L 346 14.007812 L 346 313 L 32 313 Z M 32 14.007812 " clip-rule="nonzero"/></clipPath><clipPath id="8fa87106f9"><path d="M 9.789062 318 L 56 318 L 56 361.257812 L 9.789062 361.257812 Z M 9.789062 318 " clip-rule="nonzero"/></clipPath></defs><g clip-path="url(#a6b7f56df5)"><path fill="#000000" d="M 362.671875 44.941406 C 362.246094 44.945312 361.851562 44.839844 361.480469 44.625 C 359.433594 43.453125 357.332031 42.300781 355.234375 41.203125 C 354.960938 41.050781 354.722656 40.851562 354.527344 40.605469 C 354.332031 40.363281 354.1875 40.089844 354.097656 39.789062 C 354.007812 39.488281 353.976562 39.183594 354.007812 38.871094 C 354.035156 38.558594 354.125 38.261719 354.269531 37.984375 C 354.414062 37.707031 354.605469 37.46875 354.847656 37.265625 C 355.085938 37.0625 355.355469 36.910156 355.652344 36.8125 C 355.949219 36.714844 356.253906 36.679688 356.566406 36.699219 C 356.878906 36.722656 357.175781 36.800781 357.457031 36.941406 C 359.613281 38.066406 361.785156 39.25 363.867188 40.449219 C 364.097656 40.582031 364.296875 40.75 364.472656 40.945312 C 364.648438 41.144531 364.789062 41.367188 364.890625 41.613281 C 364.992188 41.855469 365.050781 42.113281 365.070312 42.375 C 365.089844 42.640625 365.0625 42.902344 364.996094 43.15625 C 364.925781 43.414062 364.820312 43.652344 364.671875 43.875 C 364.523438 44.09375 364.34375 44.285156 364.136719 44.445312 C 363.925781 44.609375 363.695312 44.730469 363.441406 44.816406 C 363.191406 44.902344 362.933594 44.941406 362.667969 44.941406 Z M 362.671875 44.941406 " fill-opacity="1" fill-rule="nonzero"/></g><g clip-path="url(#558b6c4b81)"><path fill="#000000" d="M 34.738281 312.960938 C 34.601562 312.960938 34.464844 312.949219 34.328125 312.925781 C 34.011719 312.871094 33.722656 312.757812 33.453125 312.585938 C 33.1875 312.414062 32.960938 312.199219 32.78125 311.9375 C 32.597656 311.675781 32.472656 311.390625 32.402344 311.082031 C 32.332031 310.769531 32.324219 310.460938 32.378906 310.144531 C 33.207031 305.371094 34.160156 300.550781 35.207031 295.808594 C 35.277344 295.496094 35.402344 295.210938 35.585938 294.949219 C 35.769531 294.6875 35.992188 294.472656 36.261719 294.300781 C 36.53125 294.128906 36.824219 294.019531 37.136719 293.960938 C 37.453125 293.90625 37.765625 293.914062 38.074219 293.984375 C 38.386719 294.050781 38.671875 294.179688 38.933594 294.363281 C 39.195312 294.542969 39.410156 294.769531 39.582031 295.039062 C 39.753906 295.308594 39.867188 295.601562 39.921875 295.914062 C 39.976562 296.230469 39.972656 296.542969 39.902344 296.851562 C 38.863281 301.519531 37.925781 306.265625 37.113281 310.96875 C 37.066406 311.246094 36.96875 311.511719 36.828125 311.753906 C 36.6875 312 36.507812 312.214844 36.289062 312.398438 C 36.074219 312.578125 35.832031 312.71875 35.566406 312.816406 C 35.296875 312.910156 35.023438 312.960938 34.738281 312.960938 Z M 40.988281 284.660156 C 40.804688 284.660156 40.621094 284.640625 40.441406 284.597656 C 40.261719 284.558594 40.089844 284.496094 39.921875 284.414062 C 39.757812 284.332031 39.601562 284.230469 39.460938 284.113281 C 39.316406 283.996094 39.191406 283.863281 39.078125 283.71875 C 38.964844 283.570312 38.871094 283.414062 38.796875 283.246094 C 38.71875 283.078125 38.664062 282.902344 38.628906 282.71875 C 38.59375 282.539062 38.578125 282.355469 38.585938 282.171875 C 38.589844 281.988281 38.617188 281.804688 38.667969 281.625 C 39.9375 276.945312 41.328125 272.234375 42.816406 267.617188 C 42.910156 267.3125 43.0625 267.035156 43.265625 266.789062 C 43.472656 266.542969 43.71875 266.347656 44.003906 266.199219 C 44.285156 266.054688 44.589844 265.964844 44.90625 265.9375 C 45.226562 265.914062 45.539062 265.949219 45.84375 266.046875 C 46.148438 266.144531 46.421875 266.296875 46.667969 266.503906 C 46.910156 266.710938 47.105469 266.960938 47.25 267.246094 C 47.394531 267.53125 47.480469 267.832031 47.503906 268.152344 C 47.53125 268.472656 47.492188 268.785156 47.390625 269.089844 C 45.949219 273.632812 44.554688 278.273438 43.304688 282.886719 C 43.238281 283.136719 43.132812 283.371094 42.988281 283.589844 C 42.84375 283.804688 42.667969 283.992188 42.464844 284.152344 C 42.257812 284.3125 42.035156 284.4375 41.789062 284.523438 C 41.542969 284.609375 41.292969 284.65625 41.03125 284.660156 Z M 49.863281 257.066406 C 49.570312 257.066406 49.292969 257.015625 49.019531 256.910156 C 48.722656 256.800781 48.457031 256.636719 48.222656 256.417969 C 47.992188 256.199219 47.808594 255.945312 47.675781 255.65625 C 47.542969 255.367188 47.472656 255.0625 47.460938 254.746094 C 47.449219 254.425781 47.5 254.117188 47.613281 253.820312 C 49.3125 249.269531 51.140625 244.707031 53.042969 240.257812 C 53.167969 239.964844 53.347656 239.707031 53.574219 239.484375 C 53.800781 239.261719 54.0625 239.089844 54.359375 238.972656 C 54.65625 238.855469 54.960938 238.796875 55.28125 238.800781 C 55.597656 238.804688 55.90625 238.867188 56.199219 238.992188 C 56.492188 239.117188 56.75 239.292969 56.972656 239.523438 C 57.195312 239.75 57.363281 240.011719 57.484375 240.308594 C 57.601562 240.601562 57.660156 240.910156 57.65625 241.230469 C 57.65625 241.546875 57.589844 241.855469 57.464844 242.148438 C 55.589844 246.527344 53.789062 251.019531 52.117188 255.503906 C 51.941406 255.96875 51.652344 256.34375 51.242188 256.628906 C 50.835938 256.917969 50.382812 257.0625 49.886719 257.066406 Z M 127.070312 238.332031 C 126.753906 238.355469 126.441406 238.3125 126.140625 238.210938 C 125.835938 238.105469 125.566406 237.949219 125.328125 237.738281 C 125.085938 237.527344 124.894531 237.277344 124.753906 236.992188 C 124.613281 236.703125 124.535156 236.402344 124.515625 236.082031 C 124.492188 235.765625 124.535156 235.453125 124.636719 235.152344 C 124.742188 234.847656 124.898438 234.578125 125.109375 234.335938 C 125.320312 234.097656 125.570312 233.90625 125.855469 233.765625 C 126.140625 233.625 126.445312 233.542969 126.761719 233.523438 C 131.351562 232.941406 135.757812 231.703125 139.980469 229.808594 C 140.273438 229.675781 140.578125 229.605469 140.894531 229.59375 C 141.214844 229.582031 141.523438 229.632812 141.820312 229.746094 C 142.117188 229.859375 142.382812 230.023438 142.617188 230.242188 C 142.851562 230.460938 143.03125 230.714844 143.164062 231.003906 C 143.296875 231.292969 143.367188 231.597656 143.375 231.917969 C 143.386719 232.238281 143.335938 232.546875 143.222656 232.84375 C 143.113281 233.144531 142.945312 233.410156 142.730469 233.640625 C 142.511719 233.875 142.257812 234.054688 141.964844 234.1875 C 137.3125 236.28125 132.449219 237.648438 127.386719 238.296875 C 127.261719 238.324219 127.15625 238.332031 127.070312 238.332031 Z M 112.625 238.269531 C 112.519531 238.277344 112.410156 238.277344 112.300781 238.269531 C 107.265625 237.582031 102.417969 236.230469 97.75 234.222656 C 97.457031 234.09375 97.199219 233.914062 96.980469 233.683594 C 96.757812 233.457031 96.589844 233.191406 96.472656 232.894531 C 96.355469 232.597656 96.300781 232.289062 96.304688 231.96875 C 96.3125 231.652344 96.378906 231.34375 96.503906 231.050781 C 96.632812 230.757812 96.8125 230.503906 97.042969 230.28125 C 97.269531 230.058594 97.535156 229.890625 97.832031 229.773438 C 98.128906 229.65625 98.4375 229.601562 98.753906 229.605469 C 99.074219 229.613281 99.378906 229.679688 99.671875 229.808594 C 103.941406 231.636719 108.371094 232.863281 112.972656 233.484375 C 113.273438 233.527344 113.554688 233.625 113.820312 233.773438 C 114.082031 233.925781 114.3125 234.117188 114.503906 234.351562 C 114.691406 234.589844 114.835938 234.851562 114.925781 235.140625 C 115.015625 235.429688 115.050781 235.726562 115.03125 236.03125 C 115.011719 236.332031 114.9375 236.621094 114.804688 236.894531 C 114.675781 237.171875 114.5 237.410156 114.277344 237.621094 C 114.058594 237.828125 113.804688 237.988281 113.523438 238.101562 C 113.242188 238.210938 112.949219 238.269531 112.644531 238.269531 Z M 61.292969 230.417969 C 61.089844 230.417969 60.886719 230.390625 60.691406 230.339844 C 60.496094 230.289062 60.308594 230.214844 60.128906 230.113281 C 59.953125 230.015625 59.789062 229.898438 59.640625 229.757812 C 59.496094 229.617188 59.367188 229.460938 59.257812 229.289062 C 59.152344 229.117188 59.066406 228.933594 59.003906 228.738281 C 58.945312 228.542969 58.90625 228.34375 58.898438 228.140625 C 58.886719 227.9375 58.898438 227.738281 58.941406 227.539062 C 58.980469 227.339844 59.046875 227.148438 59.132812 226.964844 C 61.25 222.597656 63.5 218.226562 65.816406 213.980469 C 65.96875 213.699219 66.167969 213.457031 66.414062 213.257812 C 66.664062 213.058594 66.941406 212.910156 67.246094 212.820312 C 67.554688 212.730469 67.863281 212.703125 68.183594 212.738281 C 68.5 212.769531 68.796875 212.863281 69.078125 213.015625 C 69.359375 213.167969 69.597656 213.371094 69.796875 213.617188 C 70 213.867188 70.144531 214.144531 70.234375 214.453125 C 70.324219 214.757812 70.351562 215.070312 70.316406 215.386719 C 70.28125 215.703125 70.1875 216.003906 70.035156 216.28125 C 67.753906 220.46875 65.539062 224.769531 63.453125 229.070312 C 63.253906 229.484375 62.957031 229.8125 62.566406 230.054688 C 62.175781 230.296875 61.75 230.417969 61.292969 230.417969 Z M 86.382812 226.84375 C 85.808594 226.84375 85.296875 226.660156 84.855469 226.292969 C 80.972656 223.0625 77.53125 219.417969 74.539062 215.351562 C 74.316406 215.097656 74.152344 214.8125 74.050781 214.492188 C 73.949219 214.171875 73.914062 213.84375 73.949219 213.507812 C 73.984375 213.171875 74.085938 212.859375 74.253906 212.566406 C 74.417969 212.273438 74.636719 212.027344 74.90625 211.828125 C 75.175781 211.628906 75.476562 211.488281 75.804688 211.414062 C 76.132812 211.339844 76.460938 211.332031 76.792969 211.394531 C 77.121094 211.460938 77.425781 211.585938 77.703125 211.777344 C 77.980469 211.96875 78.207031 212.207031 78.382812 212.492188 C 81.144531 216.246094 84.316406 219.613281 87.898438 222.59375 C 88.285156 222.917969 88.546875 223.324219 88.683594 223.8125 C 88.816406 224.300781 88.796875 224.78125 88.625 225.261719 C 88.453125 225.738281 88.160156 226.121094 87.746094 226.410156 C 87.332031 226.703125 86.871094 226.847656 86.363281 226.847656 Z M 152.902344 226.363281 C 152.414062 226.363281 151.964844 226.226562 151.558594 225.953125 C 151.15625 225.679688 150.859375 225.316406 150.675781 224.863281 C 150.492188 224.410156 150.449219 223.945312 150.550781 223.46875 C 150.648438 222.988281 150.875 222.578125 151.222656 222.238281 C 152.328125 221.164062 153.359375 220.023438 154.320312 218.824219 C 156.175781 216.476562 157.667969 213.914062 158.792969 211.140625 C 158.910156 210.835938 159.078125 210.566406 159.300781 210.332031 C 159.527344 210.09375 159.789062 209.910156 160.085938 209.78125 C 160.382812 209.652344 160.695312 209.585938 161.023438 209.582031 C 161.347656 209.578125 161.660156 209.636719 161.960938 209.761719 C 162.261719 209.886719 162.527344 210.066406 162.753906 210.296875 C 162.984375 210.527344 163.160156 210.796875 163.277344 211.097656 C 163.398438 211.402344 163.457031 211.714844 163.449219 212.039062 C 163.441406 212.367188 163.371094 212.675781 163.234375 212.972656 C 161.933594 216.164062 160.210938 219.105469 158.070312 221.804688 C 156.984375 223.160156 155.816406 224.441406 154.570312 225.652344 C 154.105469 226.109375 153.550781 226.339844 152.902344 226.34375 Z M 75.160156 204.964844 C 74.726562 204.964844 74.320312 204.855469 73.945312 204.636719 C 73.570312 204.417969 73.277344 204.117188 73.0625 203.738281 C 72.851562 203.359375 72.75 202.953125 72.757812 202.519531 C 72.765625 202.085938 72.878906 201.683594 73.105469 201.3125 C 74.160156 199.582031 75.246094 197.828125 76.339844 196.113281 C 77.882812 193.707031 79.507812 191.304688 81.175781 189.023438 C 81.367188 188.777344 81.597656 188.574219 81.871094 188.414062 C 82.140625 188.257812 82.429688 188.15625 82.742188 188.113281 C 83.050781 188.066406 83.359375 188.082031 83.664062 188.160156 C 83.96875 188.234375 84.246094 188.367188 84.5 188.550781 C 84.75 188.734375 84.960938 188.960938 85.125 189.230469 C 85.289062 189.496094 85.398438 189.785156 85.449219 190.09375 C 85.503906 190.402344 85.496094 190.710938 85.425781 191.015625 C 85.359375 191.320312 85.234375 191.605469 85.054688 191.863281 C 83.449219 194.058594 81.882812 196.359375 80.394531 198.695312 C 79.316406 200.386719 78.25 202.109375 77.210938 203.8125 C 76.992188 204.171875 76.703125 204.453125 76.335938 204.660156 C 75.96875 204.863281 75.578125 204.964844 75.160156 204.964844 Z M 69.195312 203.816406 C 68.71875 203.820312 68.28125 203.691406 67.878906 203.4375 C 67.480469 203.179688 67.183594 202.832031 66.988281 202.398438 C 64.945312 197.832031 63.355469 193.113281 62.214844 188.246094 C 62.132812 187.929688 62.113281 187.613281 62.15625 187.292969 C 62.203125 186.96875 62.308594 186.667969 62.476562 186.390625 C 62.644531 186.113281 62.855469 185.878906 63.121094 185.683594 C 63.382812 185.492188 63.671875 185.359375 63.988281 185.285156 C 64.304688 185.210938 64.621094 185.203125 64.941406 185.257812 C 65.261719 185.3125 65.558594 185.425781 65.832031 185.601562 C 66.105469 185.777344 66.332031 185.996094 66.519531 186.265625 C 66.703125 186.53125 66.828125 186.824219 66.890625 187.144531 C 67.964844 191.714844 69.457031 196.140625 71.371094 200.425781 C 71.453125 200.609375 71.511719 200.800781 71.546875 201 C 71.582031 201.195312 71.589844 201.394531 71.574219 201.59375 C 71.558594 201.796875 71.519531 201.992188 71.457031 202.179688 C 71.394531 202.371094 71.304688 202.550781 71.199219 202.71875 C 71.089844 202.886719 70.960938 203.039062 70.8125 203.175781 C 70.667969 203.3125 70.503906 203.429688 70.328125 203.523438 C 70.152344 203.621094 69.964844 203.695312 69.773438 203.742188 C 69.578125 203.792969 69.378906 203.816406 69.179688 203.816406 Z M 163.886719 200.339844 L 163.828125 200.339844 C 163.507812 200.332031 163.203125 200.265625 162.914062 200.136719 C 162.621094 200.007812 162.367188 199.828125 162.144531 199.597656 C 161.925781 199.367188 161.757812 199.101562 161.644531 198.804688 C 161.527344 198.507812 161.472656 198.203125 161.480469 197.882812 C 161.480469 197.566406 161.480469 197.242188 161.480469 196.921875 C 161.496094 192.636719 160.855469 188.449219 159.5625 184.363281 C 159.488281 184.066406 159.472656 183.765625 159.511719 183.464844 C 159.554688 183.160156 159.648438 182.875 159.800781 182.605469 C 159.949219 182.339844 160.140625 182.109375 160.378906 181.917969 C 160.617188 181.722656 160.882812 181.582031 161.171875 181.488281 C 161.464844 181.398438 161.765625 181.363281 162.070312 181.382812 C 162.375 181.40625 162.664062 181.484375 162.941406 181.617188 C 163.214844 181.75 163.457031 181.929688 163.664062 182.152344 C 163.871094 182.378906 164.03125 182.636719 164.140625 182.921875 C 165.59375 187.476562 166.324219 192.148438 166.320312 196.929688 C 166.320312 197.285156 166.320312 197.640625 166.320312 198 C 166.3125 198.3125 166.246094 198.613281 166.121094 198.902344 C 165.992188 199.191406 165.816406 199.445312 165.589844 199.664062 C 165.363281 199.882812 165.105469 200.050781 164.8125 200.167969 C 164.523438 200.285156 164.21875 200.34375 163.902344 200.339844 Z M 92.363281 181.691406 C 91.722656 181.691406 91.175781 181.472656 90.714844 181.03125 C 90.480469 180.8125 90.300781 180.558594 90.171875 180.265625 C 90.039062 179.976562 89.96875 179.667969 89.960938 179.351562 C 89.953125 179.03125 90.003906 178.722656 90.117188 178.425781 C 90.230469 178.128906 90.398438 177.863281 90.617188 177.632812 C 94.023438 174 97.707031 170.675781 101.671875 167.667969 C 101.925781 167.476562 102.210938 167.339844 102.519531 167.261719 C 102.828125 167.179688 103.140625 167.164062 103.453125 167.210938 C 103.769531 167.253906 104.066406 167.359375 104.339844 167.519531 C 104.613281 167.683594 104.847656 167.890625 105.039062 168.148438 C 105.226562 168.402344 105.363281 168.683594 105.441406 168.992188 C 105.523438 169.300781 105.539062 169.613281 105.492188 169.929688 C 105.449219 170.246094 105.34375 170.539062 105.183594 170.816406 C 105.019531 171.089844 104.8125 171.320312 104.554688 171.511719 C 100.804688 174.359375 97.324219 177.5 94.105469 180.941406 C 93.632812 181.441406 93.050781 181.691406 92.363281 181.691406 Z M 62.53125 175.761719 C 62.222656 175.761719 61.925781 175.703125 61.640625 175.589844 C 61.355469 175.476562 61.097656 175.3125 60.875 175.101562 C 60.652344 174.886719 60.476562 174.640625 60.347656 174.363281 C 60.21875 174.082031 60.144531 173.789062 60.128906 173.480469 C 60.054688 172.039062 60.019531 170.59375 60.019531 169.179688 C 60.019531 167.035156 60.105469 164.851562 60.269531 162.753906 C 60.378906 161.375 60.519531 159.972656 60.691406 158.589844 C 60.71875 158.265625 60.8125 157.960938 60.964844 157.671875 C 61.117188 157.386719 61.320312 157.140625 61.574219 156.9375 C 61.828125 156.730469 62.109375 156.585938 62.425781 156.496094 C 62.738281 156.40625 63.054688 156.378906 63.378906 156.421875 C 63.699219 156.460938 64.003906 156.5625 64.285156 156.722656 C 64.566406 156.886719 64.804688 157.097656 65.003906 157.359375 C 65.199219 157.617188 65.335938 157.90625 65.414062 158.222656 C 65.496094 158.539062 65.507812 158.855469 65.460938 159.175781 C 65.300781 160.492188 65.164062 161.816406 65.058594 163.132812 C 64.90625 165.125 64.824219 167.160156 64.824219 169.179688 C 64.824219 170.523438 64.863281 171.886719 64.929688 173.230469 C 64.945312 173.546875 64.902344 173.855469 64.796875 174.15625 C 64.691406 174.457031 64.53125 174.726562 64.316406 174.960938 C 64.105469 175.199219 63.855469 175.386719 63.566406 175.523438 C 63.28125 175.660156 62.980469 175.738281 62.660156 175.753906 Z M 155.089844 173.300781 C 154.324219 173.304688 153.699219 173.007812 153.21875 172.414062 C 150.394531 168.859375 146.921875 166.132812 142.796875 164.238281 C 142.507812 164.105469 142.253906 163.921875 142.035156 163.691406 C 141.816406 163.457031 141.652344 163.191406 141.539062 162.894531 C 141.429688 162.59375 141.375 162.289062 141.386719 161.96875 C 141.398438 161.648438 141.46875 161.34375 141.597656 161.054688 C 141.730469 160.765625 141.910156 160.507812 142.144531 160.292969 C 142.375 160.074219 142.640625 159.90625 142.941406 159.792969 C 143.238281 159.679688 143.546875 159.628906 143.863281 159.640625 C 144.183594 159.648438 144.488281 159.71875 144.777344 159.851562 C 149.597656 162.0625 153.65625 165.242188 156.953125 169.394531 C 157.246094 169.753906 157.417969 170.164062 157.46875 170.621094 C 157.523438 171.082031 157.453125 171.519531 157.253906 171.9375 C 157.054688 172.355469 156.757812 172.6875 156.367188 172.933594 C 155.976562 173.183594 155.550781 173.304688 155.089844 173.308594 Z M 115.617188 164.71875 C 115.335938 164.71875 115.066406 164.671875 114.804688 164.578125 C 114.542969 164.484375 114.300781 164.351562 114.085938 164.171875 C 113.871094 163.996094 113.691406 163.789062 113.546875 163.546875 C 113.40625 163.308594 113.308594 163.050781 113.253906 162.777344 C 113.199219 162.503906 113.191406 162.230469 113.234375 161.953125 C 113.277344 161.679688 113.363281 161.417969 113.496094 161.171875 C 113.628906 160.925781 113.796875 160.710938 114.003906 160.523438 C 114.210938 160.335938 114.445312 160.191406 114.703125 160.085938 C 119.476562 158.066406 124.457031 156.984375 129.636719 156.839844 C 129.957031 156.832031 130.265625 156.890625 130.5625 157.003906 C 130.859375 157.121094 131.121094 157.289062 131.351562 157.511719 C 131.582031 157.730469 131.761719 157.988281 131.886719 158.28125 C 132.015625 158.574219 132.082031 158.878906 132.089844 159.195312 C 132.09375 159.515625 132.039062 159.824219 131.925781 160.121094 C 131.808594 160.417969 131.640625 160.679688 131.417969 160.910156 C 131.199219 161.140625 130.941406 161.320312 130.648438 161.449219 C 130.359375 161.574219 130.050781 161.644531 129.734375 161.648438 C 125.152344 161.785156 120.75 162.746094 116.53125 164.535156 C 116.238281 164.664062 115.933594 164.730469 115.617188 164.730469 Z M 65.933594 147.085938 C 65.714844 147.085938 65.5 147.058594 65.289062 147 C 64.984375 146.914062 64.707031 146.773438 64.453125 146.578125 C 64.203125 146.382812 64 146.144531 63.84375 145.867188 C 63.6875 145.589844 63.589844 145.292969 63.550781 144.976562 C 63.511719 144.660156 63.535156 144.351562 63.617188 144.042969 C 64.945312 139.28125 66.570312 134.625 68.492188 130.070312 C 68.617188 129.777344 68.789062 129.519531 69.015625 129.292969 C 69.242188 129.070312 69.503906 128.894531 69.800781 128.777344 C 70.097656 128.65625 70.402344 128.597656 70.722656 128.597656 C 71.039062 128.597656 71.347656 128.660156 71.640625 128.785156 C 71.933594 128.910156 72.195312 129.085938 72.417969 129.3125 C 72.644531 129.539062 72.816406 129.800781 72.9375 130.097656 C 73.054688 130.390625 73.113281 130.699219 73.113281 131.019531 C 73.109375 131.335938 73.046875 131.644531 72.925781 131.9375 C 71.082031 136.300781 69.523438 140.765625 68.246094 145.328125 C 68.175781 145.578125 68.066406 145.816406 67.921875 146.03125 C 67.773438 146.25 67.59375 146.4375 67.386719 146.597656 C 67.179688 146.753906 66.949219 146.875 66.699219 146.960938 C 66.453125 147.042969 66.199219 147.085938 65.933594 147.085938 Z M 77.082031 120.402344 C 76.871094 120.402344 76.667969 120.375 76.464844 120.320312 C 76.261719 120.265625 76.070312 120.1875 75.886719 120.082031 C 75.707031 119.980469 75.542969 119.855469 75.390625 119.707031 C 75.242188 119.558594 75.117188 119.394531 75.011719 119.214844 C 74.902344 119.035156 74.824219 118.84375 74.765625 118.640625 C 74.710938 118.441406 74.679688 118.234375 74.679688 118.023438 C 74.675781 117.816406 74.699219 117.609375 74.75 117.40625 C 74.804688 117.203125 74.878906 117.011719 74.980469 116.828125 C 77.277344 112.671875 79.878906 108.460938 82.699219 104.324219 C 82.882812 104.066406 83.105469 103.851562 83.371094 103.679688 C 83.636719 103.507812 83.925781 103.394531 84.234375 103.339844 C 84.546875 103.28125 84.855469 103.285156 85.164062 103.351562 C 85.472656 103.417969 85.757812 103.539062 86.019531 103.714844 C 86.28125 103.894531 86.496094 104.113281 86.671875 104.375 C 86.847656 104.640625 86.964844 104.925781 87.023438 105.234375 C 87.085938 105.546875 87.085938 105.855469 87.027344 106.164062 C 86.964844 106.476562 86.847656 106.761719 86.675781 107.027344 C 83.9375 111.0625 81.414062 115.148438 79.183594 119.179688 C 78.96875 119.558594 78.671875 119.855469 78.296875 120.074219 C 77.921875 120.292969 77.515625 120.402344 77.082031 120.402344 Z M 93.300781 96.402344 C 92.839844 96.402344 92.410156 96.277344 92.023438 96.03125 C 91.632812 95.785156 91.335938 95.453125 91.136719 95.039062 C 90.9375 94.621094 90.863281 94.183594 90.914062 93.726562 C 90.96875 93.269531 91.136719 92.859375 91.425781 92.496094 C 94.457031 88.707031 97.671875 84.976562 101.039062 81.402344 C 101.253906 81.167969 101.507812 80.988281 101.800781 80.855469 C 102.089844 80.722656 102.394531 80.652344 102.714844 80.640625 C 103.03125 80.628906 103.339844 80.679688 103.640625 80.792969 C 103.9375 80.902344 104.203125 81.070312 104.4375 81.285156 C 104.667969 81.503906 104.851562 81.757812 104.984375 82.050781 C 105.117188 82.339844 105.1875 82.644531 105.199219 82.960938 C 105.207031 83.28125 105.15625 83.589844 105.046875 83.890625 C 104.933594 84.1875 104.769531 84.453125 104.550781 84.6875 C 101.292969 88.167969 98.144531 91.808594 95.183594 95.503906 C 94.691406 96.109375 94.054688 96.402344 93.273438 96.386719 Z M 113.074219 75.242188 C 112.578125 75.242188 112.128906 75.101562 111.71875 74.820312 C 111.308594 74.542969 111.015625 74.171875 110.835938 73.710938 C 110.65625 73.246094 110.625 72.777344 110.734375 72.292969 C 110.847656 71.8125 111.085938 71.402344 111.449219 71.066406 C 115.015625 67.785156 118.765625 64.585938 122.601562 61.542969 C 122.847656 61.332031 123.128906 61.179688 123.441406 61.082031 C 123.75 60.980469 124.070312 60.949219 124.394531 60.980469 C 124.71875 61.011719 125.023438 61.105469 125.308594 61.261719 C 125.597656 61.417969 125.839844 61.625 126.042969 61.878906 C 126.246094 62.136719 126.390625 62.421875 126.476562 62.734375 C 126.5625 63.050781 126.585938 63.367188 126.542969 63.691406 C 126.5 64.015625 126.394531 64.316406 126.230469 64.597656 C 126.0625 64.878906 125.847656 65.117188 125.585938 65.308594 C 121.847656 68.277344 118.183594 71.410156 114.703125 74.605469 C 114.234375 75.035156 113.683594 75.246094 113.050781 75.238281 Z M 135.722656 57.234375 C 135.195312 57.234375 134.71875 57.078125 134.296875 56.765625 C 133.871094 56.453125 133.582031 56.042969 133.425781 55.539062 C 133.269531 55.035156 133.28125 54.535156 133.453125 54.039062 C 133.628906 53.539062 133.933594 53.140625 134.367188 52.84375 C 138.367188 50.109375 142.539062 47.472656 146.75 45 C 147.023438 44.808594 147.328125 44.679688 147.65625 44.613281 C 147.988281 44.546875 148.316406 44.550781 148.644531 44.625 C 148.972656 44.699219 149.273438 44.832031 149.542969 45.03125 C 149.816406 45.230469 150.035156 45.476562 150.203125 45.765625 C 150.371094 46.058594 150.476562 46.371094 150.511719 46.703125 C 150.550781 47.039062 150.519531 47.367188 150.417969 47.6875 C 150.320312 48.007812 150.160156 48.296875 149.9375 48.550781 C 149.71875 48.804688 149.457031 49.003906 149.152344 49.144531 C 145.035156 51.550781 140.980469 54.144531 137.054688 56.839844 C 136.648438 57.105469 136.207031 57.234375 135.722656 57.234375 Z M 160.71875 42.578125 C 160.445312 42.578125 160.183594 42.535156 159.925781 42.445312 C 159.667969 42.355469 159.433594 42.230469 159.21875 42.0625 C 159.007812 41.894531 158.828125 41.695312 158.679688 41.464844 C 158.535156 41.234375 158.429688 40.988281 158.367188 40.726562 C 158.304688 40.460938 158.289062 40.195312 158.316406 39.921875 C 158.34375 39.652344 158.417969 39.394531 158.53125 39.148438 C 158.648438 38.902344 158.800781 38.683594 158.992188 38.488281 C 159.179688 38.296875 159.398438 38.136719 159.640625 38.019531 C 163.964844 35.851562 168.457031 33.800781 172.957031 31.910156 C 173.25 31.785156 173.554688 31.722656 173.875 31.722656 C 174.195312 31.71875 174.503906 31.777344 174.796875 31.898438 C 175.09375 32.019531 175.355469 32.195312 175.582031 32.417969 C 175.808594 32.644531 175.984375 32.902344 176.105469 33.199219 C 176.230469 33.492188 176.292969 33.800781 176.292969 34.117188 C 176.296875 34.4375 176.234375 34.746094 176.113281 35.039062 C 175.992188 35.335938 175.820312 35.597656 175.59375 35.824219 C 175.371094 36.050781 175.109375 36.226562 174.816406 36.347656 C 170.414062 38.195312 166.027344 40.195312 161.785156 42.320312 C 161.449219 42.492188 161.09375 42.578125 160.71875 42.578125 Z M 343.257812 35.277344 C 342.925781 35.277344 342.605469 35.214844 342.296875 35.078125 C 337.972656 33.214844 333.457031 31.480469 328.945312 29.933594 C 328.648438 29.828125 328.378906 29.667969 328.144531 29.457031 C 327.910156 29.246094 327.722656 29 327.585938 28.714844 C 327.445312 28.429688 327.367188 28.128906 327.347656 27.8125 C 327.328125 27.496094 327.371094 27.1875 327.472656 26.886719 C 327.578125 26.585938 327.734375 26.320312 327.941406 26.082031 C 328.148438 25.84375 328.394531 25.652344 328.679688 25.511719 C 328.964844 25.371094 329.261719 25.289062 329.578125 25.269531 C 329.894531 25.246094 330.203125 25.285156 330.503906 25.382812 C 335.132812 26.976562 339.738281 28.75 344.191406 30.675781 C 344.449219 30.78125 344.675781 30.929688 344.882812 31.121094 C 345.085938 31.308594 345.253906 31.527344 345.378906 31.773438 C 345.507812 32.019531 345.59375 32.28125 345.632812 32.554688 C 345.667969 32.832031 345.660156 33.105469 345.601562 33.375 C 345.546875 33.648438 345.445312 33.902344 345.300781 34.140625 C 345.15625 34.378906 344.976562 34.582031 344.757812 34.757812 C 344.542969 34.933594 344.304688 35.066406 344.042969 35.15625 C 343.777344 35.25 343.507812 35.292969 343.230469 35.289062 Z M 187.429688 31.378906 C 187.144531 31.382812 186.867188 31.332031 186.601562 31.234375 C 186.332031 31.136719 186.089844 30.996094 185.871094 30.8125 C 185.65625 30.628906 185.476562 30.414062 185.335938 30.167969 C 185.195312 29.917969 185.101562 29.65625 185.054688 29.375 C 185.007812 29.09375 185.007812 28.8125 185.0625 28.53125 C 185.113281 28.253906 185.214844 27.988281 185.359375 27.746094 C 185.503906 27.5 185.6875 27.289062 185.910156 27.109375 C 186.128906 26.929688 186.375 26.792969 186.644531 26.703125 C 191.230469 25.117188 195.9375 23.660156 200.632812 22.371094 C 200.9375 22.289062 201.25 22.265625 201.566406 22.304688 C 201.882812 22.34375 202.179688 22.441406 202.457031 22.597656 C 202.734375 22.753906 202.972656 22.960938 203.167969 23.210938 C 203.363281 23.464844 203.503906 23.742188 203.589844 24.050781 C 203.675781 24.359375 203.699219 24.671875 203.660156 24.988281 C 203.617188 25.304688 203.519531 25.601562 203.363281 25.878906 C 203.207031 26.15625 203 26.390625 202.75 26.589844 C 202.496094 26.785156 202.21875 26.925781 201.910156 27.007812 C 197.308594 28.273438 192.699219 29.703125 188.210938 31.25 C 187.957031 31.335938 187.695312 31.371094 187.429688 31.367188 Z M 315.882812 25.851562 C 315.671875 25.847656 315.46875 25.820312 315.265625 25.769531 C 310.695312 24.5625 305.992188 23.5 301.296875 22.605469 C 300.976562 22.554688 300.675781 22.441406 300.398438 22.269531 C 300.125 22.097656 299.890625 21.878906 299.703125 21.613281 C 299.515625 21.347656 299.386719 21.054688 299.316406 20.738281 C 299.25 20.417969 299.246094 20.101562 299.304688 19.78125 C 299.367188 19.460938 299.488281 19.164062 299.667969 18.894531 C 299.847656 18.621094 300.074219 18.398438 300.347656 18.21875 C 300.617188 18.039062 300.914062 17.921875 301.234375 17.863281 C 301.554688 17.804688 301.875 17.808594 302.191406 17.882812 C 307 18.796875 311.804688 19.882812 316.492188 21.117188 C 316.773438 21.191406 317.035156 21.3125 317.273438 21.480469 C 317.515625 21.652344 317.714844 21.855469 317.878906 22.097656 C 318.042969 22.339844 318.160156 22.605469 318.226562 22.890625 C 318.292969 23.175781 318.308594 23.460938 318.273438 23.753906 C 318.234375 24.042969 318.148438 24.316406 318.007812 24.578125 C 317.871094 24.835938 317.691406 25.0625 317.472656 25.253906 C 317.253906 25.445312 317.003906 25.59375 316.730469 25.699219 C 316.457031 25.800781 316.171875 25.851562 315.882812 25.851562 Z M 215.355469 23.675781 C 215.058594 23.675781 214.773438 23.617188 214.496094 23.511719 C 214.222656 23.402344 213.972656 23.25 213.753906 23.046875 C 213.535156 22.847656 213.359375 22.617188 213.226562 22.351562 C 213.09375 22.089844 213.011719 21.808594 212.984375 21.515625 C 212.953125 21.21875 212.976562 20.929688 213.054688 20.644531 C 213.132812 20.355469 213.257812 20.09375 213.433594 19.855469 C 213.609375 19.617188 213.820312 19.414062 214.066406 19.253906 C 214.316406 19.09375 214.585938 18.980469 214.875 18.921875 C 219.632812 17.929688 224.488281 17.078125 229.292969 16.390625 C 229.609375 16.34375 229.921875 16.359375 230.234375 16.4375 C 230.542969 16.515625 230.824219 16.652344 231.082031 16.84375 C 231.339844 17.035156 231.546875 17.269531 231.710938 17.542969 C 231.875 17.816406 231.976562 18.113281 232.023438 18.429688 C 232.066406 18.746094 232.050781 19.058594 231.96875 19.371094 C 231.890625 19.679688 231.753906 19.960938 231.5625 20.21875 C 231.371094 20.472656 231.136719 20.679688 230.859375 20.84375 C 230.585938 21.003906 230.289062 21.109375 229.972656 21.152344 C 225.265625 21.824219 220.511719 22.65625 215.851562 23.628906 C 215.6875 23.660156 215.519531 23.675781 215.355469 23.675781 Z M 287.453125 20.441406 C 287.359375 20.445312 287.261719 20.445312 287.167969 20.441406 C 282.460938 19.878906 277.660156 19.476562 272.890625 19.21875 C 272.570312 19.203125 272.269531 19.125 271.980469 18.988281 C 271.691406 18.851562 271.441406 18.664062 271.226562 18.425781 C 271.011719 18.1875 270.851562 17.917969 270.746094 17.617188 C 270.640625 17.316406 270.59375 17.007812 270.609375 16.6875 C 270.628906 16.371094 270.703125 16.066406 270.839844 15.777344 C 270.980469 15.488281 271.167969 15.238281 271.402344 15.023438 C 271.640625 14.808594 271.910156 14.648438 272.210938 14.542969 C 272.511719 14.4375 272.820312 14.390625 273.140625 14.410156 C 278 14.648438 282.902344 15.078125 287.714844 15.644531 C 288.03125 15.664062 288.335938 15.742188 288.621094 15.882812 C 288.910156 16.023438 289.160156 16.210938 289.371094 16.449219 C 289.582031 16.6875 289.742188 16.957031 289.847656 17.261719 C 289.953125 17.5625 289.996094 17.871094 289.976562 18.191406 C 289.957031 18.511719 289.878906 18.8125 289.738281 19.101562 C 289.597656 19.386719 289.410156 19.636719 289.171875 19.851562 C 288.933594 20.0625 288.664062 20.222656 288.359375 20.324219 C 288.058594 20.429688 287.75 20.472656 287.429688 20.453125 Z M 244.054688 19.589844 C 243.738281 19.601562 243.425781 19.550781 243.128906 19.441406 C 242.828125 19.332031 242.5625 19.167969 242.328125 18.949219 C 242.09375 18.734375 241.910156 18.480469 241.777344 18.191406 C 241.644531 17.902344 241.570312 17.597656 241.558594 17.277344 C 241.546875 16.957031 241.59375 16.648438 241.707031 16.351562 C 241.816406 16.050781 241.980469 15.785156 242.195312 15.550781 C 242.414062 15.316406 242.664062 15.132812 242.957031 15 C 243.246094 14.863281 243.550781 14.792969 243.867188 14.777344 C 248.679688 14.410156 253.621094 14.183594 258.476562 14.117188 C 258.792969 14.113281 259.101562 14.167969 259.398438 14.285156 C 259.691406 14.40625 259.957031 14.574219 260.183594 14.796875 C 260.410156 15.019531 260.589844 15.277344 260.714844 15.570312 C 260.839844 15.863281 260.90625 16.171875 260.910156 16.488281 C 260.914062 16.808594 260.855469 17.117188 260.738281 17.410156 C 260.621094 17.707031 260.449219 17.96875 260.226562 18.199219 C 260.003906 18.425781 259.746094 18.605469 259.453125 18.730469 C 259.160156 18.855469 258.855469 18.921875 258.539062 18.925781 C 253.789062 18.988281 248.972656 19.207031 244.21875 19.578125 Z M 244.054688 19.589844 " fill-opacity="1" fill-rule="nonzero"/></g><path fill="#000000" d="M 31.777344 334.550781 C 31.699219 334.558594 31.617188 334.558594 31.535156 334.550781 C 31.214844 334.519531 30.917969 334.429688 30.636719 334.277344 C 30.355469 334.125 30.117188 333.925781 29.914062 333.679688 C 29.710938 333.433594 29.566406 333.15625 29.472656 332.851562 C 29.382812 332.546875 29.351562 332.234375 29.386719 331.917969 C 29.625 329.511719 29.898438 327.109375 30.203125 324.703125 C 30.226562 324.375 30.316406 324.066406 30.46875 323.777344 C 30.617188 323.488281 30.820312 323.238281 31.074219 323.03125 C 31.328125 322.820312 31.609375 322.671875 31.925781 322.582031 C 32.238281 322.488281 32.558594 322.460938 32.886719 322.5 C 33.210938 322.539062 33.515625 322.640625 33.796875 322.804688 C 34.082031 322.96875 34.324219 323.179688 34.519531 323.445312 C 34.714844 323.707031 34.855469 323.996094 34.933594 324.3125 C 35.011719 324.632812 35.023438 324.953125 34.96875 325.277344 C 34.675781 327.640625 34.402344 330.03125 34.167969 332.386719 C 34.136719 332.683594 34.054688 332.964844 33.921875 333.230469 C 33.789062 333.496094 33.609375 333.730469 33.390625 333.929688 C 33.167969 334.128906 32.917969 334.285156 32.640625 334.390625 C 32.363281 334.5 32.078125 334.550781 31.777344 334.550781 Z M 31.777344 334.550781 " fill-opacity="1" fill-rule="nonzero"/><g clip-path="url(#8fa87106f9)"><path fill="#000000" d="M 30.230469 361.132812 C 25.96875 347.1875 18.320312 329.792969 9.789062 318.773438 L 32.128906 328.359375 L 55.453125 321.429688 C 45.679688 331.378906 36.074219 347.792969 30.230469 361.132812 Z M 30.230469 361.132812 " fill-opacity="1" fill-rule="nonzero"/></g></svg>