<svg xmlns="http://www.w3.org/2000/svg" xmlns:xlink="http://www.w3.org/1999/xlink" width="500" zoomAndPan="magnify" viewBox="0 0 375 374.999991" height="500" preserveAspectRatio="xMidYMid meet" version="1.0"><defs><clipPath id="293d43c760"><path d="M 67.085938 13 L 307.835938 13 L 307.835938 361.738281 L 67.085938 361.738281 Z M 67.085938 13 " clip-rule="nonzero"/></clipPath></defs><g clip-path="url(#293d43c760)"><path fill="#000000" d="M 187.492188 13.019531 C 220.453125 13.019531 250.40625 26.492188 272.113281 48.1875 C 293.820312 69.886719 307.300781 99.824219 307.300781 132.75 L 307.300781 242.019531 C 307.300781 274.949219 293.820312 304.886719 272.113281 326.582031 C 250.40625 348.28125 220.453125 361.753906 187.492188 361.753906 C 154.53125 361.753906 124.582031 348.28125 102.875 326.582031 C 81.164062 304.886719 67.6875 274.949219 67.6875 242.019531 L 67.6875 132.75 C 67.6875 99.824219 81.164062 69.886719 102.875 48.1875 C 124.582031 26.492188 154.53125 13.019531 187.492188 13.019531 Z M 179.3125 245.242188 L 179.3125 110.171875 C 179.3125 105.660156 182.980469 101.996094 187.492188 101.996094 C 192.007812 101.996094 195.671875 105.660156 195.671875 110.171875 L 195.671875 245.242188 L 227.964844 215.875 C 231.300781 212.851562 236.453125 213.097656 239.496094 216.414062 C 242.523438 219.75 242.292969 224.902344 238.957031 227.941406 L 192.988281 269.75 C 189.914062 272.5625 185.136719 272.613281 181.996094 269.75 L 136.03125 227.941406 C 132.695312 224.917969 132.449219 219.75 135.492188 216.414062 C 138.515625 213.082031 143.6875 212.835938 147.023438 215.875 Z M 260.546875 59.730469 C 241.800781 40.996094 215.941406 29.351562 187.492188 29.351562 C 159.046875 29.351562 133.199219 40.996094 114.4375 59.730469 C 95.691406 78.46875 84.046875 104.335938 84.046875 132.75 L 84.046875 242.019531 C 84.046875 270.4375 95.675781 296.285156 114.4375 315.039062 C 133.183594 333.777344 159.046875 345.417969 187.492188 345.417969 C 215.941406 345.417969 241.785156 333.777344 260.546875 315.039062 C 279.292969 296.304688 290.941406 270.4375 290.941406 242.019531 L 290.941406 132.75 C 290.941406 104.335938 279.3125 78.484375 260.546875 59.730469 Z M 260.546875 59.730469 " fill-opacity="1" fill-rule="nonzero"/></g></svg>