<svg xmlns="http://www.w3.org/2000/svg" xmlns:xlink="http://www.w3.org/1999/xlink" width="500" zoomAndPan="magnify" viewBox="0 0 375 374.999991" height="500" preserveAspectRatio="xMidYMid meet" version="1.0"><defs><clipPath id="1674d574f0"><path d="M 67.085938 13 L 307.835938 13 L 307.835938 361.738281 L 67.085938 361.738281 Z M 67.085938 13 " clip-rule="nonzero"/></clipPath></defs><g clip-path="url(#1674d574f0)"><path fill="#ffffff" d="M 187.527344 13.019531 C 220.5 13.019531 250.460938 26.503906 272.171875 48.214844 C 293.886719 69.929688 307.371094 99.890625 307.371094 132.84375 L 307.371094 242.195312 C 307.371094 275.152344 293.886719 305.113281 272.171875 326.824219 C 250.460938 348.539062 220.5 362.023438 187.527344 362.023438 C 154.558594 362.023438 124.597656 348.539062 102.882812 326.824219 C 81.171875 305.113281 67.6875 275.152344 67.6875 242.195312 L 67.6875 132.84375 C 67.6875 99.890625 81.171875 69.929688 102.882812 48.214844 C 124.597656 26.503906 154.558594 13.019531 187.527344 13.019531 Z M 179.347656 245.421875 L 179.347656 110.246094 C 179.347656 105.730469 183.011719 102.066406 187.527344 102.066406 C 192.042969 102.066406 195.710938 105.730469 195.710938 110.246094 L 195.710938 245.421875 L 228.011719 216.03125 C 231.347656 213.007812 236.503906 213.25 239.546875 216.574219 C 242.574219 219.910156 242.34375 225.066406 239.007812 228.109375 L 193.027344 269.949219 C 189.949219 272.761719 185.171875 272.8125 182.03125 269.949219 L 136.050781 228.109375 C 132.714844 225.082031 132.46875 219.910156 135.511719 216.574219 C 138.539062 213.234375 143.707031 212.988281 147.046875 216.03125 Z M 260.605469 59.769531 C 241.851562 41.015625 215.984375 29.367188 187.527344 29.367188 C 159.074219 29.367188 133.21875 41.015625 114.453125 59.769531 C 95.699219 78.519531 84.050781 104.40625 84.050781 132.84375 L 84.050781 242.195312 C 84.050781 270.636719 95.683594 296.503906 114.453125 315.273438 C 133.203125 334.027344 159.074219 345.675781 187.527344 345.675781 C 215.984375 345.675781 241.835938 334.027344 260.605469 315.273438 C 279.355469 296.523438 291.007812 270.636719 291.007812 242.195312 L 291.007812 132.84375 C 291.007812 104.40625 279.375 78.535156 260.605469 59.769531 Z M 260.605469 59.769531 " fill-opacity="1" fill-rule="nonzero"/></g></svg>