<svg xmlns="http://www.w3.org/2000/svg" xmlns:xlink="http://www.w3.org/1999/xlink" width="500" zoomAndPan="magnify" viewBox="0 0 375 374.999991" height="500" preserveAspectRatio="xMidYMid meet" version="1.0"><defs><clipPath id="877bb90cd3"><path d="M 18.628906 18.628906 L 356.128906 18.628906 L 356.128906 356.128906 L 18.628906 356.128906 Z M 18.628906 18.628906 " clip-rule="nonzero"/></clipPath><clipPath id="3a1895928a"><path d="M 82.277344 111.730469 L 148.882812 111.730469 L 148.882812 129.828125 L 82.277344 129.828125 Z M 82.277344 111.730469 " clip-rule="nonzero"/></clipPath><clipPath id="634d08ea5f"><path d="M 93.527344 97.230469 L 130.433594 97.230469 L 130.433594 113.53125 L 93.527344 113.53125 Z M 93.527344 97.230469 " clip-rule="nonzero"/></clipPath><clipPath id="a1c67c4d78"><path d="M 105.976562 80.929688 L 130.433594 80.929688 L 130.433594 97.230469 L 105.976562 97.230469 Z M 105.976562 80.929688 " clip-rule="nonzero"/></clipPath><clipPath id="dca456302f"><path d="M 113.777344 75.128906 L 148.882812 75.128906 L 148.882812 80.929688 L 113.777344 80.929688 Z M 113.777344 75.128906 " clip-rule="nonzero"/></clipPath><clipPath id="ace1a22fcb"><path d="M 120.226562 72.40625 L 148.882812 72.40625 L 148.882812 76.15625 L 120.226562 76.15625 Z M 120.226562 72.40625 " clip-rule="nonzero"/></clipPath><clipPath id="021ca29502"><path d="M 126.675781 68.992188 L 148.882812 68.992188 L 148.882812 73.765625 L 126.675781 73.765625 Z M 126.675781 68.992188 " clip-rule="nonzero"/></clipPath><clipPath id="746eb60e0b"><path d="M 133.128906 65.242188 L 148.882812 65.242188 L 148.882812 81.890625 L 133.128906 81.890625 Z M 133.128906 65.242188 " clip-rule="nonzero"/></clipPath><clipPath id="7fac90d954"><path d="M 113 72 L 139 72 L 139 103 L 113 103 Z M 113 72 " clip-rule="nonzero"/></clipPath><clipPath id="07b69e1c4b"><path d="M 110.644531 96.398438 L 123.582031 68.824219 L 140.621094 76.816406 L 127.683594 104.394531 Z M 110.644531 96.398438 " clip-rule="nonzero"/></clipPath><clipPath id="5c5cdde2b3"><path d="M 132.40625 72.972656 L 135.421875 74.386719 C 137.101562 75.175781 138.296875 76.726562 138.628906 78.550781 C 138.964844 80.378906 138.394531 82.253906 137.101562 83.585938 C 133.464844 87.328125 131.1875 92.179688 130.632812 97.367188 C 130.433594 99.214844 129.355469 100.847656 127.738281 101.761719 C 126.121094 102.671875 124.164062 102.742188 122.484375 101.953125 L 119.46875 100.539062 C 117.128906 99.441406 115.320312 97.457031 114.441406 95.027344 C 113.5625 92.59375 113.6875 89.910156 114.785156 87.570312 L 119.4375 77.65625 C 120.535156 75.316406 122.519531 73.507812 124.953125 72.628906 C 127.382812 71.75 130.066406 71.875 132.40625 72.972656 Z M 132.40625 72.972656 " clip-rule="nonzero"/></clipPath><clipPath id="12e8716a3f"><path d="M 118 66 L 149 66 L 149 94 L 118 94 Z M 118 66 " clip-rule="nonzero"/></clipPath><clipPath id="03fd8d1f4e"><path d="M 114.597656 80.007812 L 139.417969 62.351562 L 150.328125 77.6875 L 125.503906 95.34375 Z M 114.597656 80.007812 " clip-rule="nonzero"/></clipPath><clipPath id="66c36720bc"><path d="M 145.0625 70.300781 L 146.992188 73.015625 C 148.070312 74.527344 148.347656 76.464844 147.738281 78.21875 C 147.132812 79.972656 145.714844 81.328125 143.933594 81.851562 C 138.929688 83.324219 134.5625 86.429688 131.527344 90.675781 C 130.449219 92.183594 128.703125 93.082031 126.847656 93.078125 C 124.992188 93.078125 123.253906 92.175781 122.175781 90.664062 L 120.246094 87.953125 C 118.75 85.84375 118.148438 83.226562 118.578125 80.679688 C 119.007812 78.128906 120.433594 75.855469 122.542969 74.355469 L 131.464844 68.007812 C 133.574219 66.507812 136.191406 65.910156 138.738281 66.339844 C 141.289062 66.769531 143.5625 68.195312 145.0625 70.300781 Z M 145.0625 70.300781 " clip-rule="nonzero"/></clipPath><clipPath id="8a3669285a"><path d="M 113 91 L 139 91 L 139 123 L 113 123 Z M 113 91 " clip-rule="nonzero"/></clipPath><clipPath id="44d465729c"><path d="M 122.808594 125.433594 L 110.636719 97.511719 L 127.890625 89.988281 L 140.0625 117.914062 Z M 122.808594 125.433594 " clip-rule="nonzero"/></clipPath><clipPath id="beb0e81d8d"><path d="M 119.578125 93.621094 L 122.628906 92.292969 C 124.332031 91.550781 126.285156 91.675781 127.878906 92.632812 C 129.46875 93.585938 130.5 95.25 130.648438 97.101562 C 131.058594 102.304688 133.203125 107.21875 136.734375 111.058594 C 137.988281 112.425781 138.507812 114.316406 138.121094 116.132812 C 137.738281 117.945312 136.5 119.464844 134.800781 120.207031 L 131.746094 121.539062 C 129.375 122.570312 126.691406 122.621094 124.285156 121.675781 C 121.878906 120.730469 119.945312 118.867188 118.914062 116.496094 L 114.535156 106.457031 C 113.503906 104.085938 113.453125 101.402344 114.398438 98.996094 C 115.34375 96.589844 117.207031 94.65625 119.578125 93.621094 Z M 119.578125 93.621094 " clip-rule="nonzero"/></clipPath><clipPath id="4e28edfd44"><path d="M 117 101 L 148 101 L 148 129 L 117 129 Z M 117 101 " clip-rule="nonzero"/></clipPath><clipPath id="03e3c58929"><path d="M 138.980469 131.804688 L 113.765625 114.710938 L 124.328125 99.132812 L 149.539062 116.226562 Z M 138.980469 131.804688 " clip-rule="nonzero"/></clipPath><clipPath id="0fc2066932"><path d="M 119.242188 106.644531 L 121.109375 103.890625 C 122.152344 102.355469 123.871094 101.414062 125.726562 101.371094 C 127.582031 101.328125 129.347656 102.183594 130.457031 103.667969 C 133.585938 107.84375 138.023438 110.851562 143.0625 112.210938 C 144.855469 112.695312 146.300781 114.015625 146.949219 115.757812 C 147.59375 117.496094 147.359375 119.441406 146.316406 120.976562 L 144.449219 123.734375 C 143 125.875 140.757812 127.351562 138.21875 127.835938 C 135.679688 128.324219 133.046875 127.785156 130.910156 126.332031 L 121.84375 120.1875 C 119.703125 118.738281 118.226562 116.496094 117.738281 113.957031 C 117.25 111.414062 117.792969 108.785156 119.242188 106.644531 Z M 119.242188 106.644531 " clip-rule="nonzero"/></clipPath><clipPath id="43799835e1"><path d="M 85 73 L 134 73 L 134 129 L 85 129 Z M 85 73 " clip-rule="nonzero"/></clipPath><clipPath id="7842204729"><path d="M 78.535156 114.066406 L 113.972656 67.523438 L 133.15625 82.132812 L 97.722656 128.675781 Z M 78.535156 114.066406 " clip-rule="nonzero"/></clipPath><clipPath id="c1dbf3d904"><path d="M 90.898438 98.980469 C 92.375 96.347656 94.222656 93.460938 96.25 90.800781 C 98.273438 88.140625 100.410156 85.726562 102.542969 83.621094 C 102.589844 83.578125 102.628906 83.527344 102.679688 83.484375 C 110.761719 75.644531 119.265625 71.8125 123.390625 74.753906 L 133.128906 82.167969 L 97.722656 128.675781 L 87.992188 121.265625 C 84.027344 118.050781 85.382812 108.933594 90.898438 98.980469 Z M 90.898438 98.980469 " clip-rule="nonzero"/></clipPath><clipPath id="4880ae1cc3"><path d="M 102 67 L 148 67 L 148 101 L 102 101 Z M 102 67 " clip-rule="nonzero"/></clipPath><clipPath id="df3d0fcc6d"><path d="M 97.355469 83.753906 L 139.113281 61.027344 L 148.007812 77.371094 L 106.253906 100.101562 Z M 97.355469 83.753906 " clip-rule="nonzero"/></clipPath><clipPath id="080adf148a"><path d="M 111.609375 76.792969 C 113.539062 75.261719 115.847656 73.691406 118.234375 72.390625 C 120.621094 71.09375 123.03125 70.050781 125.347656 69.265625 C 125.402344 69.253906 125.445312 69.230469 125.496094 69.214844 C 134.25 66.367188 142.230469 67.082031 144.707031 71.363281 L 147.984375 77.386719 L 106.253906 100.101562 L 102.976562 94.082031 C 100.710938 89.648438 104.351562 82.609375 111.609375 76.792969 Z M 111.609375 76.792969 " clip-rule="nonzero"/></clipPath><clipPath id="ef8babd4ad"><path d="M 135.332031 62.636719 L 149.035156 62.636719 L 149.035156 80.089844 L 135.332031 80.089844 Z M 135.332031 62.636719 " clip-rule="nonzero"/></clipPath><clipPath id="3fa8b64c7f"><path d="M 135.84375 74.273438 C 135.535156 73.382812 135.332031 72.363281 135.332031 71.367188 C 135.332031 70.371094 135.503906 69.410156 135.8125 68.527344 C 135.824219 68.507812 135.824219 68.488281 135.832031 68.46875 C 137.074219 65.148438 140.34375 62.699219 143.984375 62.652344 L 149.035156 62.652344 L 149.035156 80.089844 L 143.988281 80.089844 C 140.324219 80.042969 137.054688 77.632812 135.84375 74.273438 Z M 135.84375 74.273438 " clip-rule="nonzero"/></clipPath><clipPath id="100f231de0"><path d="M 101 60 L 159 60 L 159 93 L 101 93 Z M 101 60 " clip-rule="nonzero"/></clipPath><clipPath id="d52545009a"><path d="M 98.5 79.847656 L 152.265625 54.796875 L 158.054688 67.21875 L 104.289062 92.269531 Z M 98.5 79.847656 " clip-rule="nonzero"/></clipPath><clipPath id="3ebde9a362"><path d="M 116.636719 71.960938 C 119.253906 70.402344 122.308594 68.753906 125.382812 67.324219 C 128.453125 65.890625 131.484375 64.671875 134.34375 63.679688 C 134.40625 63.664062 134.464844 63.636719 134.523438 63.617188 C 145.285156 59.972656 154.207031 59.421875 155.890625 62.65625 L 158.023438 67.234375 L 104.289062 92.269531 L 102.15625 87.695312 C 100.753906 84.304688 106.796875 77.882812 116.636719 71.960938 Z M 116.636719 71.960938 " clip-rule="nonzero"/></clipPath><clipPath id="8e783d1ee1"><path d="M 148.875 59.324219 L 157.824219 59.324219 L 157.824219 80.929688 L 148.875 80.929688 Z M 148.875 59.324219 " clip-rule="nonzero"/></clipPath><clipPath id="8f4e40398b"><path d="M 82 78 L 116 78 L 116 135 L 82 135 Z M 82 78 " clip-rule="nonzero"/></clipPath><clipPath id="b64778b773"><path d="M 76.917969 128.234375 L 103.265625 75.089844 L 115.542969 81.179688 L 89.195312 134.324219 Z M 76.917969 128.234375 " clip-rule="nonzero"/></clipPath><clipPath id="e79839414f"><path d="M 86.160156 110.75 C 87.226562 107.898438 88.585938 104.703125 90.089844 101.667969 C 91.597656 98.628906 93.203125 95.78125 94.816406 93.226562 C 94.851562 93.171875 94.882812 93.113281 94.917969 93.0625 C 101.042969 83.496094 107.671875 77.496094 111.003906 78.96875 L 115.527344 81.210938 L 89.195312 134.324219 L 84.675781 132.082031 C 81.460938 130.3125 82.167969 121.519531 86.160156 110.75 Z M 86.160156 110.75 " clip-rule="nonzero"/></clipPath><clipPath id="0d176ced23"><path d="M 76.917969 129.851562 L 98.519531 129.851562 L 98.519531 135.953125 L 76.917969 135.953125 Z M 76.917969 129.851562 " clip-rule="nonzero"/></clipPath><clipPath id="66cebf2582"><path d="M 74 98 L 89 98 L 89 138 L 74 138 Z M 74 98 " clip-rule="nonzero"/></clipPath><clipPath id="12001e6df4"><path d="M 73.75 136.21875 L 80.800781 98.089844 L 89.640625 99.722656 L 82.589844 137.855469 Z M 73.75 136.21875 " clip-rule="nonzero"/></clipPath><clipPath id="cfa331fe58"><path d="M 85.804688 99.042969 C 86.996094 99.261719 88.019531 100.027344 88.566406 101.105469 C 89.117188 102.1875 89.132812 103.464844 88.605469 104.558594 L 86.34375 109.273438 C 83.578125 115.03125 82.398438 121.417969 82.917969 127.78125 L 83.34375 132.996094 C 83.445312 134.207031 82.976562 135.390625 82.074219 136.207031 C 81.175781 137.019531 79.949219 137.367188 78.753906 137.144531 C 77.429688 136.898438 76.253906 136.136719 75.488281 135.023438 C 74.722656 133.910156 74.429688 132.542969 74.675781 131.214844 L 79.871094 103.121094 C 80.117188 101.792969 80.878906 100.617188 81.992188 99.851562 C 83.105469 99.089844 84.476562 98.796875 85.804688 99.042969 Z M 85.804688 99.042969 " clip-rule="nonzero"/></clipPath><clipPath id="cf1488d07b"><path d="M 110.640625 125.410156 L 122.664062 125.410156 L 122.664062 147.390625 L 110.640625 147.390625 Z M 110.640625 125.410156 " clip-rule="nonzero"/></clipPath><clipPath id="2f8e0ccf80"><path d="M 110.640625 141.378906 L 110.640625 131.449219 C 110.640625 129.851562 111.273438 128.324219 112.402344 127.195312 C 113.527344 126.070312 115.058594 125.433594 116.652344 125.433594 C 118.246094 125.433594 119.777344 126.070312 120.90625 127.195312 C 122.03125 128.324219 122.664062 129.851562 122.664062 131.449219 L 122.664062 141.378906 C 122.664062 142.972656 122.03125 144.503906 120.90625 145.632812 C 119.777344 146.757812 118.246094 147.390625 116.652344 147.390625 C 115.058594 147.390625 113.527344 146.757812 112.402344 145.632812 C 111.273438 144.503906 110.640625 142.972656 110.640625 141.378906 Z M 110.640625 141.378906 " clip-rule="nonzero"/></clipPath><clipPath id="95af59e94f"><path d="M 110 116 L 136 116 L 136 141 L 110 141 Z M 110 116 " clip-rule="nonzero"/></clipPath><clipPath id="8d3f317a73"><path d="M 107.910156 134.496094 L 130.707031 114.253906 L 137.539062 121.945312 L 114.742188 142.1875 Z M 107.910156 134.496094 " clip-rule="nonzero"/></clipPath><clipPath id="b189dd3717"><path d="M 134.65625 118.75 C 135.570312 119.785156 135.933594 121.195312 135.625 122.539062 C 135.316406 123.882812 134.378906 124.996094 133.101562 125.523438 L 131.195312 126.320312 C 126.375 128.324219 122.367188 131.882812 119.808594 136.429688 L 118.792969 138.230469 C 118.117188 139.433594 116.902344 140.234375 115.53125 140.382812 C 114.160156 140.527344 112.800781 140.003906 111.886719 138.972656 C 109.691406 136.5 109.914062 132.71875 112.386719 130.523438 L 126.207031 118.25 C 128.675781 116.054688 132.460938 116.28125 134.65625 118.75 Z M 134.65625 118.75 " clip-rule="nonzero"/></clipPath><clipPath id="58bea258ee"><path d="M 98 115 L 122 115 L 122 142 L 98 142 Z M 98 115 " clip-rule="nonzero"/></clipPath><clipPath id="3a64487904"><path d="M 104.925781 113.339844 L 123.28125 137.671875 L 115.710938 143.382812 L 97.355469 119.054688 Z M 104.925781 113.339844 " clip-rule="nonzero"/></clipPath><clipPath id="3303fe840a"><path d="M 118.859375 140.976562 C 117.84375 141.742188 116.519531 141.96875 115.308594 141.585938 C 114.09375 141.203125 113.140625 140.261719 112.75 139.050781 L 111.964844 136.640625 C 110.351562 131.675781 107.125 127.398438 102.796875 124.484375 L 100.691406 123.070312 C 99.636719 122.359375 98.992188 121.183594 98.957031 119.910156 C 98.921875 118.640625 99.503906 117.429688 100.519531 116.664062 C 102.953125 114.828125 106.414062 115.3125 108.25 117.746094 L 119.941406 133.246094 C 121.777344 135.679688 121.292969 139.140625 118.859375 140.976562 Z M 118.859375 140.976562 " clip-rule="nonzero"/></clipPath></defs><rect x="-37.5" width="450" fill="#ffffff" y="-37.499999" height="449.999989" fill-opacity="1"/><rect x="-37.5" width="450" fill="#ffffff" y="-37.499999" height="449.999989" fill-opacity="1"/><g clip-path="url(#877bb90cd3)"><path fill="#000000" d="M 268.144531 168.507812 C 268.144531 123.972656 231.914062 87.742188 187.378906 87.742188 C 184.738281 87.742188 182.597656 89.882812 182.597656 92.523438 L 182.597656 116.160156 L 180.300781 116.160156 C 171.71875 116.160156 164.738281 123.144531 164.738281 131.726562 C 164.738281 140.308594 171.71875 147.292969 180.300781 147.292969 L 182.597656 147.292969 L 182.597656 163.722656 L 161.382812 163.722656 C 158.742188 163.722656 156.601562 165.863281 156.601562 168.507812 L 156.601562 175.582031 C 156.601562 178.890625 153.910156 181.585938 150.597656 181.585938 C 147.289062 181.585938 144.597656 178.890625 144.597656 175.582031 L 144.597656 168.507812 C 144.597656 165.863281 142.457031 163.722656 139.816406 163.722656 L 111.394531 163.722656 C 108.753906 163.722656 106.613281 165.863281 106.613281 168.507812 C 106.613281 190.96875 113.71875 201.960938 121.238281 213.59375 C 129.066406 225.699219 137.882812 239.359375 140.988281 270.457031 C 133.550781 272.410156 128.050781 279.1875 128.050781 287.230469 L 128.050781 314.339844 C 128.050781 323.90625 135.832031 331.683594 145.394531 331.683594 L 153.523438 331.683594 L 153.523438 339.496094 C 153.523438 348.667969 160.984375 356.128906 170.15625 356.128906 L 204.601562 356.128906 C 213.773438 356.128906 221.234375 348.667969 221.234375 339.496094 L 221.234375 331.683594 L 229.363281 331.683594 C 238.925781 331.683594 246.707031 323.90625 246.707031 314.339844 L 246.707031 287.230469 C 246.707031 279.1875 241.203125 272.410156 233.765625 270.457031 C 236.875 239.359375 245.691406 225.699219 253.515625 213.59375 C 261.039062 201.960938 268.144531 190.96875 268.144531 168.507812 Z M 237.140625 287.230469 L 237.140625 314.339844 C 237.140625 318.628906 233.652344 322.121094 229.363281 322.121094 L 216.449219 322.121094 C 213.808594 322.121094 211.667969 324.261719 211.667969 326.902344 L 211.667969 339.496094 C 211.667969 343.394531 208.5 346.566406 204.601562 346.566406 L 170.15625 346.566406 C 166.257812 346.566406 163.089844 343.394531 163.089844 339.496094 L 163.089844 326.902344 C 163.089844 324.261719 160.949219 322.121094 158.304688 322.121094 L 145.394531 322.121094 C 141.105469 322.121094 137.617188 318.632812 137.617188 314.339844 L 137.617188 287.230469 C 137.617188 282.941406 141.105469 279.453125 145.394531 279.453125 L 229.363281 279.453125 C 233.652344 279.453125 237.140625 282.941406 237.140625 287.230469 Z M 224.210938 269.886719 L 150.546875 269.886719 C 147.261719 236.25 137.726562 221.480469 129.273438 208.402344 C 122.578125 198.046875 117.171875 189.683594 116.300781 173.289062 L 135.03125 173.289062 L 135.03125 175.582031 C 135.03125 184.164062 142.015625 191.148438 150.597656 191.148438 C 159.179688 191.148438 166.164062 184.164062 166.164062 175.582031 L 166.164062 173.289062 L 187.378906 173.289062 C 190.019531 173.289062 192.160156 171.148438 192.160156 168.507812 L 192.160156 142.511719 C 192.160156 139.871094 190.019531 137.726562 187.378906 137.726562 L 180.300781 137.726562 C 176.992188 137.726562 174.300781 135.035156 174.300781 131.726562 C 174.300781 128.417969 176.992188 125.726562 180.300781 125.726562 L 187.378906 125.726562 C 190.019531 125.726562 192.160156 123.585938 192.160156 120.941406 L 192.160156 97.464844 C 229.199219 99.933594 258.578125 130.855469 258.578125 168.507812 C 258.578125 188.148438 252.800781 197.085938 245.484375 208.402344 C 237.03125 221.480469 227.496094 236.246094 224.210938 269.886719 Z M 132.003906 141.421875 L 132.003906 139.128906 L 153.21875 139.128906 C 155.859375 139.128906 158 136.988281 158 134.34375 L 158 108.347656 C 158 105.707031 155.859375 103.566406 153.21875 103.566406 L 146.140625 103.566406 C 142.832031 103.566406 140.140625 100.875 140.140625 97.566406 C 140.140625 94.257812 142.832031 91.566406 146.140625 91.566406 L 153.21875 91.566406 C 155.859375 91.566406 158 89.421875 158 86.78125 L 158 58.363281 C 158 57.09375 157.496094 55.878906 156.597656 54.980469 C 155.703125 54.085938 154.488281 53.578125 153.21875 53.578125 C 108.683594 53.578125 72.453125 89.8125 72.453125 134.34375 C 72.453125 136.988281 74.59375 139.128906 77.234375 139.128906 L 100.871094 139.128906 L 100.871094 141.421875 C 100.871094 150.003906 107.855469 156.988281 116.4375 156.988281 C 125.019531 156.988281 132.003906 150.003906 132.003906 141.421875 Z M 110.4375 141.421875 L 110.4375 134.34375 C 110.4375 131.703125 108.296875 129.5625 105.652344 129.5625 L 82.175781 129.5625 C 84.539062 94.105469 112.980469 65.667969 148.433594 63.304688 L 148.433594 82 L 146.140625 82 C 137.558594 82 130.574219 88.984375 130.574219 97.566406 C 130.574219 106.148438 137.558594 113.132812 146.140625 113.132812 L 148.433594 113.132812 L 148.433594 129.5625 L 127.222656 129.5625 C 124.582031 129.5625 122.441406 131.703125 122.441406 134.347656 L 122.441406 141.421875 C 122.441406 144.730469 119.746094 147.425781 116.4375 147.425781 C 113.128906 147.425781 110.4375 144.730469 110.4375 141.421875 Z M 84.972656 254.636719 C 84.972656 257.277344 82.828125 259.417969 80.1875 259.417969 L 65.28125 259.417969 C 62.640625 259.417969 60.5 257.277344 60.5 254.636719 C 60.5 251.996094 62.640625 249.851562 65.28125 249.851562 L 80.1875 249.851562 C 82.828125 249.851562 84.972656 251.996094 84.972656 254.636719 Z M 56.582031 226.246094 L 56.582031 241.152344 C 56.582031 243.792969 54.441406 245.9375 51.800781 245.9375 C 49.160156 245.9375 47.015625 243.792969 47.015625 241.152344 L 47.015625 226.246094 C 47.015625 223.605469 49.160156 221.464844 51.800781 221.464844 C 54.441406 221.464844 56.582031 223.605469 56.582031 226.246094 Z M 43.101562 254.636719 C 43.101562 257.277344 40.957031 259.417969 38.316406 259.417969 L 23.410156 259.417969 C 20.769531 259.417969 18.628906 257.277344 18.628906 254.636719 C 18.628906 251.996094 20.769531 249.851562 23.410156 249.851562 L 38.316406 249.851562 C 40.957031 249.851562 43.101562 251.996094 43.101562 254.636719 Z M 56.582031 268.117188 L 56.582031 283.023438 C 56.582031 285.664062 54.441406 287.804688 51.800781 287.804688 C 49.160156 287.804688 47.015625 285.664062 47.015625 283.023438 L 47.015625 268.117188 C 47.015625 265.476562 49.160156 263.335938 51.800781 263.335938 C 54.441406 263.335938 56.582031 265.476562 56.582031 268.117188 Z M 56.582031 65.28125 L 56.582031 80.1875 C 56.582031 82.828125 54.441406 84.972656 51.800781 84.972656 C 49.160156 84.972656 47.015625 82.828125 47.015625 80.1875 L 47.015625 65.28125 C 47.015625 62.640625 49.160156 60.5 51.800781 60.5 C 54.441406 60.5 56.582031 62.640625 56.582031 65.28125 Z M 60.5 51.800781 C 60.5 49.160156 62.640625 47.015625 65.28125 47.015625 L 80.1875 47.015625 C 82.828125 47.015625 84.96875 49.160156 84.96875 51.800781 C 84.96875 54.441406 82.828125 56.582031 80.1875 56.582031 L 65.28125 56.582031 C 62.640625 56.582031 60.5 54.441406 60.5 51.800781 Z M 56.582031 23.410156 L 56.582031 38.316406 C 56.582031 40.960938 54.441406 43.101562 51.800781 43.101562 C 49.160156 43.101562 47.015625 40.960938 47.015625 38.316406 L 47.015625 23.410156 C 47.015625 20.769531 49.160156 18.628906 51.800781 18.628906 C 54.441406 18.628906 56.582031 20.769531 56.582031 23.410156 Z M 43.101562 51.800781 C 43.101562 54.441406 40.957031 56.582031 38.316406 56.582031 L 23.410156 56.582031 C 20.769531 56.582031 18.628906 54.441406 18.628906 51.800781 C 18.628906 49.160156 20.769531 47.015625 23.410156 47.015625 L 38.316406 47.015625 C 40.957031 47.015625 43.101562 49.160156 43.101562 51.800781 Z M 314.257812 322.957031 C 314.257812 325.597656 312.117188 327.738281 309.476562 327.738281 L 294.570312 327.738281 C 291.929688 327.738281 289.789062 325.597656 289.789062 322.957031 C 289.789062 320.316406 291.929688 318.175781 294.570312 318.175781 L 309.476562 318.175781 C 312.117188 318.175781 314.257812 320.316406 314.257812 322.957031 Z M 356.128906 322.957031 C 356.128906 325.597656 353.988281 327.738281 351.347656 327.738281 L 336.441406 327.738281 C 333.800781 327.738281 331.65625 325.597656 331.65625 322.957031 C 331.65625 320.316406 333.800781 318.175781 336.441406 318.175781 L 351.347656 318.175781 C 353.988281 318.175781 356.128906 320.316406 356.128906 322.957031 Z M 327.742188 294.570312 L 327.742188 309.476562 C 327.742188 312.117188 325.597656 314.257812 322.957031 314.257812 C 320.316406 314.257812 318.175781 312.117188 318.175781 309.476562 L 318.175781 294.570312 C 318.175781 291.929688 320.316406 289.789062 322.957031 289.789062 C 325.597656 289.789062 327.742188 291.929688 327.742188 294.570312 Z M 327.742188 336.441406 L 327.742188 351.347656 C 327.742188 353.988281 325.597656 356.128906 322.957031 356.128906 C 320.316406 356.128906 318.175781 353.988281 318.175781 351.347656 L 318.175781 336.441406 C 318.175781 333.800781 320.316406 331.65625 322.957031 331.65625 C 325.597656 331.65625 327.742188 333.800781 327.742188 336.441406 Z M 255.679688 100.207031 C 253.8125 98.339844 253.8125 95.3125 255.679688 93.445312 L 286.59375 62.527344 C 288.460938 60.660156 291.488281 60.660156 293.355469 62.527344 C 295.222656 64.394531 295.222656 67.421875 293.355469 69.289062 L 262.441406 100.207031 C 261.507812 101.140625 260.285156 101.609375 259.058594 101.609375 C 257.835938 101.609375 256.613281 101.140625 255.679688 100.207031 Z M 289.976562 275.886719 C 288.75 275.886719 287.527344 275.421875 286.59375 274.488281 L 255.679688 243.570312 C 253.8125 241.703125 253.8125 238.675781 255.679688 236.808594 C 257.546875 234.941406 260.574219 234.941406 262.441406 236.808594 L 293.355469 267.722656 C 295.222656 269.589844 295.222656 272.621094 293.355469 274.488281 C 292.425781 275.421875 291.199219 275.886719 289.976562 275.886719 Z M 288.75 163.722656 L 332.472656 163.722656 C 335.117188 163.722656 337.257812 165.867188 337.257812 168.507812 C 337.257812 171.148438 335.117188 173.289062 332.472656 173.289062 L 288.75 173.289062 C 286.109375 173.289062 283.96875 171.148438 283.96875 168.507812 C 283.96875 165.867188 286.109375 163.722656 288.75 163.722656 Z M 182.597656 67.132812 L 182.597656 23.410156 C 182.597656 20.769531 184.738281 18.628906 187.378906 18.628906 C 190.019531 18.628906 192.160156 20.769531 192.160156 23.410156 L 192.160156 67.132812 C 192.160156 69.773438 190.019531 71.917969 187.378906 71.917969 C 184.738281 71.917969 182.597656 69.773438 182.597656 67.132812 Z M 182.597656 67.132812 " fill-opacity="1" fill-rule="nonzero"/></g><g clip-path="url(#3a1895928a)"><path fill="#fcc018" d="M 82.277344 111.730469 L 148.878906 111.730469 L 148.878906 129.828125 L 82.277344 129.828125 Z M 82.277344 111.730469 " fill-opacity="1" fill-rule="nonzero"/></g><g clip-path="url(#634d08ea5f)"><path fill="#fcc018" d="M 93.527344 97.230469 L 130.457031 97.230469 L 130.457031 113.53125 L 93.527344 113.53125 Z M 93.527344 97.230469 " fill-opacity="1" fill-rule="nonzero"/></g><g clip-path="url(#a1c67c4d78)"><path fill="#fcc018" d="M 105.976562 80.929688 L 130.425781 80.929688 L 130.425781 97.230469 L 105.976562 97.230469 Z M 105.976562 80.929688 " fill-opacity="1" fill-rule="nonzero"/></g><g clip-path="url(#dca456302f)"><path fill="#fcc018" d="M 113.777344 75.128906 L 148.871094 75.128906 L 148.871094 80.929688 L 113.777344 80.929688 Z M 113.777344 75.128906 " fill-opacity="1" fill-rule="nonzero"/></g><g clip-path="url(#ace1a22fcb)"><path fill="#fcc018" d="M 120.226562 72.40625 L 148.878906 72.40625 L 148.878906 76.15625 L 120.226562 76.15625 Z M 120.226562 72.40625 " fill-opacity="1" fill-rule="nonzero"/></g><g clip-path="url(#021ca29502)"><path fill="#fcc018" d="M 126.675781 68.992188 L 148.875 68.992188 L 148.875 73.765625 L 126.675781 73.765625 Z M 126.675781 68.992188 " fill-opacity="1" fill-rule="nonzero"/></g><g clip-path="url(#746eb60e0b)"><path fill="#fcc018" d="M 133.128906 65.242188 L 148.882812 65.242188 L 148.882812 81.917969 L 133.128906 81.917969 Z M 133.128906 65.242188 " fill-opacity="1" fill-rule="nonzero"/></g><g clip-path="url(#7fac90d954)"><g clip-path="url(#07b69e1c4b)"><g clip-path="url(#5c5cdde2b3)"><path fill="#fcc018" d="M 110.644531 96.398438 L 123.582031 68.824219 L 142.714844 77.800781 L 129.773438 105.375 Z M 110.644531 96.398438 " fill-opacity="1" fill-rule="nonzero"/></g></g></g><g clip-path="url(#12e8716a3f)"><g clip-path="url(#03fd8d1f4e)"><g clip-path="url(#66c36720bc)"><path fill="#fcc018" d="M 114.597656 80.007812 L 139.417969 62.351562 L 151.667969 79.574219 L 126.84375 97.226562 Z M 114.597656 80.007812 " fill-opacity="1" fill-rule="nonzero"/></g></g></g><g clip-path="url(#8a3669285a)"><g clip-path="url(#44d465729c)"><g clip-path="url(#beb0e81d8d)"><path fill="#fcc018" d="M 122.808594 125.433594 L 110.636719 97.511719 L 130.007812 89.066406 L 142.179688 116.988281 Z M 122.808594 125.433594 " fill-opacity="1" fill-rule="nonzero"/></g></g></g><g clip-path="url(#4e28edfd44)"><g clip-path="url(#03e3c58929)"><g clip-path="url(#0fc2066932)"><path fill="#fcc018" d="M 138.980469 131.804688 L 113.765625 114.710938 L 125.625 97.21875 L 150.835938 114.3125 Z M 138.980469 131.804688 " fill-opacity="1" fill-rule="nonzero"/></g></g></g><g clip-path="url(#43799835e1)"><g clip-path="url(#7842204729)"><g clip-path="url(#c1dbf3d904)"><path fill="#fcc018" d="M 78.535156 114.066406 L 113.972656 67.523438 L 133.15625 82.132812 L 97.722656 128.675781 Z M 78.535156 114.066406 " fill-opacity="1" fill-rule="nonzero"/></g></g></g><g clip-path="url(#4880ae1cc3)"><g clip-path="url(#df3d0fcc6d)"><g clip-path="url(#080adf148a)"><path fill="#fcc018" d="M 97.355469 83.753906 L 139.113281 61.027344 L 148.007812 77.371094 L 106.253906 100.101562 Z M 97.355469 83.753906 " fill-opacity="1" fill-rule="nonzero"/></g></g></g><g clip-path="url(#ef8babd4ad)"><g clip-path="url(#3fa8b64c7f)"><path fill="#fcc018" d="M 135.332031 80.089844 L 135.332031 62.636719 L 149.035156 62.636719 L 149.035156 80.089844 Z M 135.332031 80.089844 " fill-opacity="1" fill-rule="nonzero"/></g></g><g clip-path="url(#100f231de0)"><g clip-path="url(#d52545009a)"><g clip-path="url(#3ebde9a362)"><path fill="#fcc018" d="M 98.5 79.847656 L 152.21875 54.820312 L 158.007812 67.242188 L 104.289062 92.269531 Z M 98.5 79.847656 " fill-opacity="1" fill-rule="nonzero"/></g></g></g><g clip-path="url(#8e783d1ee1)"><path fill="#000000" d="M 157.824219 59.324219 L 157.824219 80.929688 L 148.875 80.929688 L 148.875 59.324219 Z M 157.824219 59.324219 " fill-opacity="1" fill-rule="nonzero"/></g><g clip-path="url(#8f4e40398b)"><g clip-path="url(#b64778b773)"><g clip-path="url(#e79839414f)"><path fill="#fcc018" d="M 76.917969 128.234375 L 103.242188 75.140625 L 115.519531 81.226562 L 89.195312 134.324219 Z M 76.917969 128.234375 " fill-opacity="1" fill-rule="nonzero"/></g></g></g><g clip-path="url(#0d176ced23)"><path fill="#000000" d="M 76.917969 129.851562 L 98.527344 129.851562 L 98.527344 135.953125 L 76.917969 135.953125 Z M 76.917969 129.851562 " fill-opacity="1" fill-rule="nonzero"/></g><g clip-path="url(#66cebf2582)"><g clip-path="url(#12001e6df4)"><g clip-path="url(#cfa331fe58)"><path fill="#000000" d="M 73.75 136.21875 L 80.796875 98.128906 L 90.808594 99.980469 L 83.761719 138.070312 Z M 73.75 136.21875 " fill-opacity="1" fill-rule="nonzero"/></g></g></g><g clip-path="url(#cf1488d07b)"><g clip-path="url(#2f8e0ccf80)"><path fill="#fcc018" d="M 110.640625 147.390625 L 110.640625 125.457031 L 122.664062 125.457031 L 122.664062 147.390625 Z M 110.640625 147.390625 " fill-opacity="1" fill-rule="nonzero"/></g></g><g clip-path="url(#95af59e94f)"><g clip-path="url(#8d3f317a73)"><g clip-path="url(#b189dd3717)"><path fill="#fcc018" d="M 107.910156 134.496094 L 130.671875 114.285156 L 138.621094 123.234375 L 115.859375 143.449219 Z M 107.910156 134.496094 " fill-opacity="1" fill-rule="nonzero"/></g></g></g><g clip-path="url(#58bea258ee)"><g clip-path="url(#3a64487904)"><g clip-path="url(#3303fe840a)"><path fill="#fcc018" d="M 104.925781 113.339844 L 123.253906 137.636719 L 114.445312 144.285156 L 96.113281 119.988281 Z M 104.925781 113.339844 " fill-opacity="1" fill-rule="nonzero"/></g></g></g></svg>